<?xml version="1.0" encoding="UTF-8"?>
<!DOCTYPE svg PUBLIC "-//W3C//DTD SVG 1.1//EN" "http://www.w3.org/Graphics/SVG/1.1/DTD/svg11.dtd">
<svg xmlns="http://www.w3.org/2000/svg" version="1.1" width="500px" height="500px" style="shape-rendering:geometricPrecision; text-rendering:geometricPrecision; image-rendering:optimizeQuality; fill-rule:evenodd; clip-rule:evenodd" xmlns:xlink="http://www.w3.org/1999/xlink">
<g><path style="opacity:0.999" fill="#323333" d="M 328.5,376.5 C 328.5,376.167 328.5,375.833 328.5,375.5C 338.5,375.5 348.5,375.5 358.5,375.5C 358.5,368.833 358.5,362.167 358.5,355.5C 353.167,355.5 347.833,355.5 342.5,355.5C 342.5,350.5 342.5,345.5 342.5,340.5C 350.312,320.008 351.478,299.008 346,277.5C 344.918,275.382 343.751,273.382 342.5,271.5C 342.5,255.5 342.5,239.5 342.5,223.5C 347.833,223.5 353.167,223.5 358.5,223.5C 358.5,216.167 358.5,208.833 358.5,201.5C 341.163,201.333 323.83,201.5 306.5,202C 304.243,207.624 301.91,213.124 299.5,218.5C 277.032,205.923 253.032,202.089 227.5,207C 218.507,209.333 209.84,212.499 201.5,216.5C 199.601,211.638 197.601,206.805 195.5,202C 177.17,201.5 158.836,201.333 140.5,201.5C 140.5,208.833 140.5,216.167 140.5,223.5C 145.833,223.5 151.167,223.5 156.5,223.5C 156.5,238.5 156.5,253.5 156.5,268.5C 151.662,279.204 149.329,290.537 149.5,302.5C 149.677,310.896 150.51,319.23 152,327.5C 152.751,332.211 154.251,336.544 156.5,340.5C 156.5,345.5 156.5,350.5 156.5,355.5C 151.167,355.5 145.833,355.5 140.5,355.5C 140.5,362.167 140.5,368.833 140.5,375.5C 150.167,375.5 159.833,375.5 169.5,375.5C 169.5,375.833 169.5,376.167 169.5,376.5C 148.497,376.667 127.497,376.5 106.5,376C 101.427,374.594 97.9268,371.428 96,366.5C 94.5126,311.559 94.0126,256.559 94.5,201.5C 87.825,201.666 81.1583,201.5 74.5,201C 60.1764,197.19 56.0097,188.69 62,175.5C 120.738,121.217 179.572,67.0503 238.5,13C 246.5,8.33333 254.5,8.33333 262.5,13C 320.968,67.1335 379.135,121.633 437,176.5C 441.573,189.975 436.74,198.142 422.5,201C 416.175,201.5 409.842,201.666 403.5,201.5C 403.988,256.892 403.488,312.226 402,367.5C 399.685,371.817 396.185,374.65 391.5,376C 370.503,376.5 349.503,376.667 328.5,376.5 Z"/></g>
<g><path style="opacity:1" fill="#fbfdfd" d="M 201.5,216.5 C 208.964,237.559 216.631,258.559 224.5,279.5C 235.917,269.293 248.917,266.793 263.5,272C 268.475,274.074 272.642,277.241 276,281.5C 284.719,260.846 292.552,239.846 299.5,218.5C 301.91,213.124 304.243,207.624 306.5,202C 323.83,201.5 341.163,201.333 358.5,201.5C 358.5,208.833 358.5,216.167 358.5,223.5C 353.167,223.5 347.833,223.5 342.5,223.5C 342.5,239.5 342.5,255.5 342.5,271.5C 342.5,294.5 342.5,317.5 342.5,340.5C 342.5,345.5 342.5,350.5 342.5,355.5C 347.833,355.5 353.167,355.5 358.5,355.5C 358.5,362.167 358.5,368.833 358.5,375.5C 348.5,375.5 338.5,375.5 328.5,375.5C 319.833,375.5 311.167,375.5 302.5,375.5C 302.5,368.833 302.5,362.167 302.5,355.5C 308.5,355.5 314.5,355.5 320.5,355.5C 321.665,311.335 321.831,267.002 321,222.5C 319.961,223.244 319.461,224.244 319.5,225.5C 318.434,227.701 317.767,230.035 317.5,232.5C 297.704,279.772 278.704,327.439 260.5,375.5C 253.8,375.83 247.134,375.497 240.5,374.5C 220.238,324.971 200.238,275.304 180.5,225.5C 180.539,224.244 180.039,223.244 179,222.5C 178.169,267.002 178.335,311.335 179.5,355.5C 185.167,355.5 190.833,355.5 196.5,355.5C 196.5,362.167 196.5,368.833 196.5,375.5C 187.5,375.5 178.5,375.5 169.5,375.5C 159.833,375.5 150.167,375.5 140.5,375.5C 140.5,368.833 140.5,362.167 140.5,355.5C 145.833,355.5 151.167,355.5 156.5,355.5C 156.5,350.5 156.5,345.5 156.5,340.5C 156.5,316.5 156.5,292.5 156.5,268.5C 156.5,253.5 156.5,238.5 156.5,223.5C 151.167,223.5 145.833,223.5 140.5,223.5C 140.5,216.167 140.5,208.833 140.5,201.5C 158.836,201.333 177.17,201.5 195.5,202C 197.601,206.805 199.601,211.638 201.5,216.5 Z"/></g>
<g><path style="opacity:1" fill="#1b86a9" d="M 299.5,218.5 C 292.552,239.846 284.719,260.846 276,281.5C 272.642,277.241 268.475,274.074 263.5,272C 248.917,266.793 235.917,269.293 224.5,279.5C 216.631,258.559 208.964,237.559 201.5,216.5C 209.84,212.499 218.507,209.333 227.5,207C 253.032,202.089 277.032,205.923 299.5,218.5 Z"/></g>
<g><path style="opacity:1" fill="#353c40" d="M 319.5,225.5 C 320.477,228.287 320.81,231.287 320.5,234.5C 319.5,233.833 318.5,233.167 317.5,232.5C 317.767,230.035 318.434,227.701 319.5,225.5 Z"/></g>
<g><path style="opacity:1" fill="#a6dae6" d="M 320.5,355.5 C 320.5,315.167 320.5,274.833 320.5,234.5C 320.81,231.287 320.477,228.287 319.5,225.5C 319.461,224.244 319.961,223.244 321,222.5C 321.831,267.002 321.665,311.335 320.5,355.5 Z"/></g>
<g><path style="opacity:1" fill="#94c2cf" d="M 180.5,225.5 C 179.501,268.663 179.168,311.997 179.5,355.5C 178.335,311.335 178.169,267.002 179,222.5C 180.039,223.244 180.539,224.244 180.5,225.5 Z"/></g>
<g><path style="opacity:1" fill="#1b86a8" d="M 180.5,225.5 C 200.238,275.304 220.238,324.971 240.5,374.5C 247.134,375.497 253.8,375.83 260.5,375.5C 278.704,327.439 297.704,279.772 317.5,232.5C 318.5,233.167 319.5,233.833 320.5,234.5C 320.5,274.833 320.5,315.167 320.5,355.5C 314.5,355.5 308.5,355.5 302.5,355.5C 302.5,362.167 302.5,368.833 302.5,375.5C 311.167,375.5 319.833,375.5 328.5,375.5C 328.5,375.833 328.5,376.167 328.5,376.5C 318.869,396.432 307.703,415.432 295,433.5C 283.717,449.117 272.05,464.451 260,479.5C 256.54,483.465 252.874,487.132 249,490.5C 217.632,455.953 191.132,417.953 169.5,376.5C 169.5,376.167 169.5,375.833 169.5,375.5C 178.5,375.5 187.5,375.5 196.5,375.5C 196.5,368.833 196.5,362.167 196.5,355.5C 190.833,355.5 185.167,355.5 179.5,355.5C 179.168,311.997 179.501,268.663 180.5,225.5 Z"/></g>
<g><path style="opacity:1" fill="#2383a0" d="M 156.5,268.5 C 156.5,292.5 156.5,316.5 156.5,340.5C 154.251,336.544 152.751,332.211 152,327.5C 150.51,319.23 149.677,310.896 149.5,302.5C 149.329,290.537 151.662,279.204 156.5,268.5 Z"/></g>
<g><path style="opacity:1" fill="#25809f" d="M 342.5,271.5 C 343.751,273.382 344.918,275.382 346,277.5C 351.478,299.008 350.312,320.008 342.5,340.5C 342.5,317.5 342.5,294.5 342.5,271.5 Z"/></g>
<g><path style="opacity:1" fill="#36899f" d="M 246.5,341.5 C 249.024,340.2 251.691,340.2 254.5,341.5C 253.048,344.737 251.881,348.07 251,351.5C 249.778,347.985 248.278,344.652 246.5,341.5 Z"/></g>
</svg>
